<svg width="72" height="24" viewBox="0 0 72 24" fill="none" xmlns="http://www.w3.org/2000/svg">
<path d="M7.11295 17.7441C5.82946 17.7441 4.69036 17.4874 3.69565 16.974C2.71699 16.4446 1.94689 15.7066 1.38537 14.76C0.839881 13.8134 0.567139 12.7385 0.567139 11.5352C0.567139 10.3801 0.855925 9.32923 1.4335 8.38265C2.01107 7.43607 2.79721 6.69004 3.79191 6.14456C4.78662 5.59907 5.89364 5.32633 7.11295 5.32633C8.66919 5.32633 9.89653 5.64721 10.795 6.28895L10.3377 9.48966C9.42324 9.21692 8.66919 9.08055 8.07557 9.08055C7.30548 9.08055 6.69582 9.30516 6.2466 9.75438C5.79737 10.1876 5.57276 10.7812 5.57276 11.5352C5.57276 12.2893 5.79737 12.8909 6.2466 13.3401C6.69582 13.7894 7.28943 14.014 8.02744 14.014C8.66919 14.014 9.42324 13.8776 10.2896 13.6049L10.7468 16.974C10.2014 17.2468 9.64785 17.4393 9.08632 17.5516C8.52479 17.68 7.86701 17.7441 7.11295 17.7441Z" fill="#CB4036"/>
<path d="M18.7082 17.7441C17.3605 17.7441 16.1573 17.4794 15.0984 16.95C14.0555 16.4205 13.2373 15.6905 12.6437 14.76C12.0661 13.8134 11.7773 12.7305 11.7773 11.5112C11.7773 10.2918 12.0741 9.21692 12.6678 8.28639C13.2614 7.33981 14.0796 6.60983 15.1224 6.09643C16.1813 5.58303 17.3846 5.32633 18.7323 5.32633C20.096 5.32633 21.2992 5.59105 22.3421 6.12049C23.401 6.63389 24.2192 7.35586 24.7968 8.28639C25.3743 9.21692 25.6631 10.2918 25.6631 11.5112C25.6631 12.7465 25.3663 13.8375 24.7727 14.7841C24.1951 15.7146 23.3769 16.4446 22.318 16.974C21.2752 17.4874 20.0719 17.7441 18.7082 17.7441ZM18.7563 14.1343C19.4141 14.1343 19.9516 13.8936 20.3687 13.4123C20.8019 12.915 21.0185 12.2813 21.0185 11.5112C21.0185 10.7411 20.8019 10.1154 20.3687 9.63406C19.9516 9.1367 19.4141 8.88803 18.7563 8.88803C18.0985 8.88803 17.5531 9.1367 17.1199 9.63406C16.7027 10.1154 16.4942 10.7411 16.4942 11.5112C16.4942 12.2813 16.7027 12.915 17.1199 13.4123C17.5531 13.8936 18.0985 14.1343 18.7563 14.1343Z" fill="#CB4036"/>
<path d="M33.7961 17.7441C32.4485 17.7441 31.2452 17.4794 30.1863 16.95C29.1435 16.4205 28.3252 15.6905 27.7316 14.76C27.1541 13.8134 26.8653 12.7305 26.8653 11.5112C26.8653 10.2918 27.1621 9.21692 27.7557 8.28639C28.3493 7.33981 29.1675 6.60983 30.2104 6.09643C31.2693 5.58303 32.4725 5.32633 33.8202 5.32633C35.1839 5.32633 36.3872 5.59105 37.43 6.12049C38.4889 6.63389 39.3071 7.35586 39.8847 8.28639C40.4623 9.21692 40.7511 10.2918 40.7511 11.5112C40.7511 12.7465 40.4543 13.8375 39.8606 14.7841C39.2831 15.7146 38.4648 16.4446 37.406 16.974C36.3631 17.4874 35.1598 17.7441 33.7961 17.7441ZM33.8443 14.1343C34.5021 14.1343 35.0395 13.8936 35.4567 13.4123C35.8898 12.915 36.1064 12.2813 36.1064 11.5112C36.1064 10.7411 35.8898 10.1154 35.4567 9.63406C35.0395 9.1367 34.5021 8.88803 33.8443 8.88803C33.1865 8.88803 32.641 9.1367 32.2078 9.63406C31.7907 10.1154 31.5821 10.7411 31.5821 11.5112C31.5821 12.2813 31.7907 12.915 32.2078 13.4123C32.641 13.8936 33.1865 14.1343 33.8443 14.1343Z" fill="#CB4036"/>
<path d="M54.4191 17.7441C53.3442 17.7441 52.4779 17.6078 51.8201 17.335C51.1783 17.0462 50.6489 16.5729 50.2317 15.9152C49.8146 15.2574 49.4456 14.3188 49.1247 13.0995L47.7049 14.2306V17.5516H42.603L42.627 1.69244L47.7289 0.946411L47.7049 9.17681L53.8897 4.12306L56.6572 7.90134L52.7827 10.5967C52.9752 11.816 53.2479 12.6663 53.6009 13.1476C53.9699 13.6289 54.5074 13.8696 55.2133 13.8696C55.5021 13.8696 55.847 13.8215 56.2481 13.7252L55.7668 17.6719C55.2855 17.7201 54.8363 17.7441 54.4191 17.7441Z" fill="#CB4036"/>
<path d="M64.3967 23.0626C63.5143 23.0626 2.36968 22.9744 1.5675 22.7979L1.95254 19.2362C2.57824 19.3325 63.4582 19.3806 63.9876 19.3806C64.9342 19.3806 65.6562 19.0918 66.1535 18.5142C66.6509 17.9527 66.9076 16.8858 66.9236 15.3135C66.0893 16.9179 64.7497 17.7201 62.9047 17.7201C61.3484 17.7201 60.1291 17.1746 59.2467 16.0836C58.3804 14.9766 57.9472 13.4524 57.9472 11.5112V5.49479H63.0009V12.2572C63.0009 12.8027 63.1533 13.2599 63.4582 13.6289C63.763 13.9819 64.1801 14.1584 64.7096 14.1584C65.2551 14.1584 65.6963 13.9257 66.0332 13.4605C66.3861 12.9952 66.5626 12.3855 66.5626 11.6315V5.49479H71.6404V14.4953C71.6404 17.2869 71.0147 19.4127 69.7633 20.8726C68.5119 22.3326 66.7231 23.0626 64.3967 23.0626Z" fill="#CB4036"/>
</svg>
