<svg width="11" height="13" viewBox="0 0 11 13" fill="none" xmlns="http://www.w3.org/2000/svg">
<path d="M6.875 0.739563C7.27344 0.739563 7.625 1.09113 7.625 1.48956C7.625 1.91144 7.27344 2.23956 6.875 2.23956H6.5V3.05988C7.36719 3.2005 8.16406 3.55206 8.82031 4.09113L9.33594 3.59894C9.61719 3.29425 10.1094 3.29425 10.3906 3.59894C10.6953 3.88019 10.6953 4.37238 10.3906 4.65363L9.82812 5.21613C10.3203 5.98956 10.625 6.90363 10.625 7.86456C10.625 10.5599 8.42188 12.7396 5.75 12.7396C3.05469 12.7396 0.875 10.5599 0.875 7.86456C0.875 5.42706 2.65625 3.41144 5 3.05988V2.23956H4.625C4.20312 2.23956 3.875 1.91144 3.875 1.48956C3.875 1.09113 4.20312 0.739563 4.625 0.739563H6.875ZM6.3125 5.23956C6.3125 4.93488 6.05469 4.67706 5.75 4.67706C5.42188 4.67706 5.1875 4.93488 5.1875 5.23956V8.23956C5.1875 8.56769 5.42188 8.80206 5.75 8.80206C6.05469 8.80206 6.3125 8.56769 6.3125 8.23956V5.23956Z" fill="#FFC327"/>
</svg>
