<svg width="11" height="13" viewBox="0 0 11 13" fill="none" xmlns="http://www.w3.org/2000/svg">
<path d="M5.67969 4.23175C5.75 4.53644 5.75 4.84113 5.70312 5.14581C5.63281 5.42706 5.49219 5.70831 5.30469 5.96613C4.97656 6.34113 4.55469 6.59894 4.03906 6.71613V11.8021C4.03906 12.0599 3.94531 12.2943 3.78125 12.4818C3.59375 12.6458 3.35938 12.7396 3.10156 12.7396C2.86719 12.7396 2.63281 12.6458 2.44531 12.4818C2.28125 12.2943 2.16406 12.0599 2.16406 11.8021V6.71613C1.67188 6.62238 1.22656 6.34113 0.921875 5.96613C0.734375 5.73175 0.59375 5.4505 0.523438 5.14581C0.453125 4.84113 0.476562 4.53644 0.546875 4.23175L1.25 1.04425C1.27344 0.9505 1.32031 0.880188 1.39062 0.809875C1.48438 0.763 1.55469 0.739563 1.64844 0.763C1.74219 0.763 1.83594 0.809875 1.90625 0.880188C1.95312 0.9505 2 1.04425 2 1.11456V4.48956H2.39844L2.79688 1.02081C2.82031 0.9505 2.84375 0.880188 2.91406 0.833313C2.96094 0.786438 3.03125 0.763 3.10156 0.763C3.19531 0.763 3.26562 0.786438 3.3125 0.833313C3.38281 0.880188 3.40625 0.9505 3.42969 1.02081L3.82812 4.48956H4.22656V1.11456C4.22656 1.04425 4.27344 0.9505 4.32031 0.880188C4.39062 0.809875 4.48438 0.763 4.57812 0.763C4.67188 0.739563 4.74219 0.763 4.83594 0.809875C4.90625 0.880188 4.95312 0.9505 4.97656 1.04425L5.67969 4.23175ZM11 11.8021C11 12.0599 10.8828 12.2943 10.7188 12.4818C10.5312 12.6458 10.2969 12.7396 10.0625 12.7396C9.80469 12.7396 9.57031 12.6458 9.38281 12.4818C9.21875 12.2943 9.125 12.0599 9.125 11.8021V8.98956H8.72656C8.51562 8.98956 8.32812 8.96613 8.14062 8.89581C7.95312 8.80206 7.78906 8.70831 7.64844 8.56769C7.50781 8.42706 7.41406 8.23956 7.32031 8.0755C7.25 7.888 7.22656 7.67706 7.22656 7.48956V4.81769C7.25 3.9505 7.50781 3.10675 7.97656 2.40363C8.46875 1.67706 9.14844 1.138 9.96875 0.809875C10.0625 0.763 10.2031 0.739563 10.3203 0.763C10.4375 0.763 10.5547 0.809875 10.6484 0.880188C10.7656 0.9505 10.8359 1.04425 10.9062 1.16144C10.9531 1.25519 10.9766 1.37238 11 1.48956V11.8021Z" fill="#FFC327"/>
</svg>
