<svg width="513" height="512" viewBox="0 0 513 512" fill="none" xmlns="http://www.w3.org/2000/svg">
<rect x="0.5" width="512" height="512" rx="40" fill="url(#paint0_linear_31_962)"/>
<path d="M284.447 327.751C258.503 327.751 235.477 322.563 215.371 312.185C195.588 301.483 180.022 286.565 168.671 267.431C157.645 248.297 152.132 226.569 152.132 202.247C152.132 178.897 157.969 157.655 169.644 138.521C181.319 119.387 197.21 104.307 217.316 93.2811C237.423 82.2548 259.8 76.7417 284.447 76.7417C315.904 76.7417 340.713 83.2277 358.874 96.1998L349.632 160.898C331.147 155.385 315.904 152.628 303.905 152.628C288.339 152.628 276.015 157.169 266.935 166.249C257.854 175.005 253.314 187.004 253.314 202.247C253.314 217.489 257.854 229.65 266.935 238.731C276.015 247.811 288.014 252.351 302.932 252.351C315.904 252.351 331.146 249.595 348.659 244.082L357.901 312.185C346.875 317.698 335.687 321.59 324.336 323.86C312.986 326.454 299.689 327.751 284.447 327.751Z" fill="white"/>
<path d="M172.353 429.907C188.568 433.474 343.031 435.258 360.868 435.258L352.598 360.831C341.896 360.831 192.784 359.858 180.136 357.912L172.353 429.907Z" fill="white"/>
<defs>
<linearGradient id="paint0_linear_31_962" x1="256.5" y1="0" x2="256.5" y2="512" gradientUnits="userSpaceOnUse">
<stop stop-color="#CB4036"/>
<stop offset="1" stop-color="#830D05"/>
</linearGradient>
</defs>
</svg>
