<svg width="850" height="264" viewBox="0 0 850 264" fill="none" xmlns="http://www.w3.org/2000/svg">
<path d="M79.0031 200.501C63.685 200.501 50.0902 197.437 38.2187 191.31C26.5386 184.991 17.3478 176.183 10.6461 164.886C4.1359 153.589 0.880798 140.76 0.880798 126.399C0.880798 112.613 4.32737 100.071 11.2205 88.7742C18.1137 77.4771 27.496 68.5734 39.3675 62.0632C51.239 55.553 64.4509 52.2979 79.0031 52.2979C97.5763 52.2979 112.224 56.1275 122.947 63.7865L117.49 101.986C106.576 98.7309 97.5763 97.1034 90.4917 97.1034C81.3008 97.1034 74.0247 99.784 68.6634 105.145C63.3021 110.315 60.6214 117.4 60.6214 126.399C60.6214 135.399 63.3021 142.579 68.6634 147.94C74.0247 153.302 81.1093 155.982 89.9173 155.982C97.5763 155.982 106.576 154.355 116.915 151.1L122.373 191.31C115.862 194.565 109.256 196.863 102.555 198.203C95.853 199.735 88.0025 200.501 79.0031 200.501Z" fill="white"/>
<path d="M217.389 200.501C201.305 200.501 186.944 197.341 174.307 191.023C161.861 184.704 152.095 175.992 145.011 164.886C138.118 153.589 134.671 140.664 134.671 126.112C134.671 111.56 138.213 98.7309 145.298 87.6253C152.383 76.3282 162.148 67.616 174.594 61.4888C187.231 55.3616 201.592 52.2979 217.676 52.2979C233.952 52.2979 248.312 55.4573 260.758 61.776C273.396 67.9033 283.161 76.5197 290.054 87.6253C296.947 98.7309 300.394 111.56 300.394 126.112C300.394 140.856 296.852 153.876 289.767 165.173C282.874 176.279 273.108 184.991 260.471 191.31C248.025 197.437 233.664 200.501 217.389 200.501ZM217.963 157.418C225.814 157.418 232.228 154.546 237.207 148.802C242.377 142.866 244.961 135.303 244.961 126.112C244.961 116.921 242.377 109.454 237.207 103.709C232.228 97.7736 225.814 94.8057 217.963 94.8057C210.113 94.8057 203.603 97.7736 198.433 103.709C193.454 109.454 190.965 116.921 190.965 126.112C190.965 135.303 193.454 142.866 198.433 148.802C203.603 154.546 210.113 157.418 217.963 157.418Z" fill="white"/>
<path d="M397.459 200.501C381.375 200.501 367.014 197.341 354.377 191.023C341.931 184.704 332.165 175.992 325.081 164.886C318.188 153.589 314.741 140.664 314.741 126.112C314.741 111.56 318.283 98.7309 325.368 87.6253C332.453 76.3282 342.218 67.616 354.664 61.4888C367.301 55.3616 381.662 52.2979 397.746 52.2979C414.022 52.2979 428.382 55.4573 440.828 61.776C453.466 67.9033 463.231 76.5197 470.124 87.6253C477.017 98.7309 480.464 111.56 480.464 126.112C480.464 140.856 476.922 153.876 469.837 165.173C462.944 176.279 453.178 184.991 440.541 191.31C428.095 197.437 413.734 200.501 397.459 200.501ZM398.033 157.418C405.884 157.418 412.298 154.546 417.277 148.802C422.447 142.866 425.031 135.303 425.031 126.112C425.031 116.921 422.447 109.454 417.277 103.709C412.298 97.7736 405.884 94.8057 398.033 94.8057C390.183 94.8057 383.673 97.7736 378.503 103.709C373.524 109.454 371.035 116.921 371.035 126.112C371.035 135.303 373.524 142.866 378.503 148.802C383.673 154.546 390.183 157.418 398.033 157.418Z" fill="white"/>
<path d="M643.588 200.501C630.759 200.501 620.419 198.873 612.569 195.618C604.91 192.171 598.591 186.523 593.613 178.672C588.634 170.822 584.231 159.62 580.401 145.068L563.455 158.567V198.203H502.566L502.853 8.92855L563.743 0.0249023L563.455 98.2522L637.269 37.9372L670.299 83.0299L624.058 115.198C626.355 129.75 629.61 139.898 633.823 145.643C638.227 151.387 644.641 154.259 653.066 154.259C656.513 154.259 660.63 153.685 665.416 152.536L659.672 199.639C653.928 200.213 648.567 200.501 643.588 200.501Z" fill="white"/>
<path d="M762.668 263.975C752.136 263.975 22.3936 262.922 12.8198 260.816L17.4152 218.308C24.8827 219.457 751.466 220.031 757.785 220.031C769.082 220.031 777.699 216.585 783.634 209.691C789.57 202.99 792.634 190.257 792.825 171.492C782.868 190.64 766.88 200.213 744.86 200.213C726.287 200.213 711.735 193.703 701.204 180.683C690.864 167.471 685.694 149.281 685.694 126.112V54.3084H746.009V135.016C746.009 141.526 747.828 146.983 751.466 151.387C755.104 155.599 760.083 157.706 766.402 157.706C772.912 157.706 778.177 154.929 782.198 149.376C786.411 143.824 788.517 136.548 788.517 127.548V54.3084H849.119V161.727C849.119 195.044 841.652 220.414 826.717 237.838C811.781 255.263 790.432 263.975 762.668 263.975Z" fill="white"/>
</svg>
