<svg width="182" height="74" viewBox="0 0 182 74" fill="none" xmlns="http://www.w3.org/2000/svg">
<path d="M17.3525 42.6725C14.0919 42.6725 11.1982 42.0204 8.67123 40.7162C6.18506 39.3712 4.22873 37.4964 2.80224 35.0917C1.4165 32.6871 0.723633 29.9563 0.723633 26.8996C0.723633 23.9651 1.45726 21.2955 2.92451 18.8908C4.39176 16.4862 6.38884 14.591 8.91577 13.2052C11.4427 11.8195 14.2549 11.1266 17.3525 11.1266C21.3059 11.1266 24.4238 11.9418 26.7062 13.5721L25.5446 21.7031C23.2215 21.0102 21.3059 20.6638 19.7979 20.6638C17.8415 20.6638 16.2928 21.2344 15.1516 22.3756C14.0104 23.476 13.4398 24.984 13.4398 26.8996C13.4398 28.8152 14.0104 30.3435 15.1516 31.4847C16.2928 32.6259 17.8008 33.1965 19.6756 33.1965C21.3059 33.1965 23.2215 32.8501 25.4223 32.1572L26.5839 40.7162C25.1982 41.409 23.7921 41.8981 22.3656 42.1834C20.9391 42.5095 19.268 42.6725 17.3525 42.6725Z" fill="#CB4036"/>
<path d="M46.8087 42.6725C43.3852 42.6725 40.3284 42 37.6384 40.655C34.9892 39.3101 32.9106 37.4556 31.4026 35.0917C29.9354 32.6871 29.2017 29.936 29.2017 26.8384C29.2017 23.7409 29.9557 21.0102 31.4638 18.6463C32.9718 16.2416 35.0504 14.3872 37.6996 13.083C40.3895 11.7788 43.4463 11.1266 46.8699 11.1266C50.3342 11.1266 53.391 11.7991 56.0402 13.1441C58.7301 14.4483 60.8087 16.2824 62.276 18.6463C63.7432 21.0102 64.4769 23.7409 64.4769 26.8384C64.4769 29.9767 63.7229 32.7482 62.2149 35.1529C60.7476 37.5168 58.669 39.3712 55.979 40.7162C53.3298 42.0204 50.2731 42.6725 46.8087 42.6725ZM46.931 33.5022C48.602 33.5022 49.9674 32.8908 51.0271 31.6681C52.1275 30.4047 52.6777 28.7948 52.6777 26.8384C52.6777 24.8821 52.1275 23.2926 51.0271 22.0699C49.9674 20.8064 48.602 20.1747 46.931 20.1747C45.26 20.1747 43.8742 20.8064 42.7738 22.0699C41.7141 23.2926 41.1843 24.8821 41.1843 26.8384C41.1843 28.7948 41.7141 30.4047 42.7738 31.6681C43.8742 32.8908 45.26 33.5022 46.931 33.5022Z" fill="#CB4036"/>
<path d="M85.1378 42.6725C81.7142 42.6725 78.6574 42 75.9675 40.655C73.3183 39.3101 71.2397 37.4556 69.7317 35.0917C68.2644 32.6871 67.5308 29.936 67.5308 26.8384C67.5308 23.7409 68.2848 21.0102 69.7928 18.6463C71.3008 16.2416 73.3794 14.3872 76.0286 13.083C78.7186 11.7788 81.7753 11.1266 85.1989 11.1266C88.6632 11.1266 91.72 11.7991 94.3692 13.1441C97.0592 14.4483 99.1378 16.2824 100.605 18.6463C102.072 21.0102 102.806 23.7409 102.806 26.8384C102.806 29.9767 102.052 32.7482 100.544 35.1529C99.0766 37.5168 96.998 39.3712 94.3081 40.7162C91.6589 42.0204 88.6021 42.6725 85.1378 42.6725ZM85.26 33.5022C86.9311 33.5022 88.2964 32.8908 89.3561 31.6681C90.4566 30.4047 91.0068 28.7948 91.0068 26.8384C91.0068 24.8821 90.4566 23.2926 89.3561 22.0699C88.2964 20.8064 86.9311 20.1747 85.26 20.1747C83.589 20.1747 82.2033 20.8064 81.1028 22.0699C80.0432 23.2926 79.5133 24.8821 79.5133 26.8384C79.5133 28.7948 80.0432 30.4047 81.1028 31.6681C82.2033 32.8908 83.589 33.5022 85.26 33.5022Z" fill="#CB4036"/>
<path d="M137.528 42.6725C134.797 42.6725 132.596 42.3261 130.925 41.6332C129.295 40.8996 127.95 39.6973 126.89 38.0262C125.831 36.3552 124.893 33.9709 124.078 30.8734L120.471 33.7467V42.1834H107.51L107.572 1.8952L120.532 0L120.471 20.9083L136.183 8.06988L143.214 17.6681L133.371 24.5153C133.86 27.6128 134.553 29.7729 135.449 30.9956C136.387 32.2184 137.752 32.8297 139.545 32.8297C140.279 32.8297 141.155 32.7074 142.174 32.4629L140.952 42.4891C139.729 42.6114 138.588 42.6725 137.528 42.6725Z" fill="#CB4036"/>
<path d="M162.875 56.1834C160.633 56.1834 5.30276 55.9593 3.26492 55.5109L4.24308 46.4629C5.8326 46.7074 160.49 46.8297 161.835 46.8297C164.24 46.8297 166.074 46.0961 167.338 44.6288C168.601 43.2024 169.253 40.492 169.294 36.4978C167.175 40.5735 163.771 42.6114 159.084 42.6114C155.131 42.6114 152.033 41.2256 149.792 38.4542C147.591 35.6419 146.49 31.77 146.49 26.8384V11.5546H159.329V28.7336C159.329 30.1194 159.716 31.2809 160.49 32.2184C161.265 33.115 162.325 33.5633 163.67 33.5633C165.055 33.5633 166.176 32.9724 167.032 31.7904C167.929 30.6085 168.377 29.0597 168.377 27.1441V11.5546H181.277V34.4192C181.277 41.5109 179.687 46.9112 176.508 50.6201C173.329 54.329 168.785 56.1834 162.875 56.1834Z" fill="#CB4036"/>
<path d="M16.9409 70.1834V63.1834H19.9209C20.3209 63.1834 20.6876 63.2834 21.0209 63.4834C21.3609 63.6767 21.6309 63.9434 21.8309 64.2834C22.0309 64.6167 22.1309 64.9934 22.1309 65.4134C22.1309 65.7934 22.0309 66.1467 21.8309 66.4734C21.6309 66.8001 21.3643 67.0634 21.0309 67.2634C20.6976 67.4567 20.3276 67.5534 19.9209 67.5534H18.0209V70.1834H16.9409ZM21.1009 70.1834L19.3209 67.0234L20.4309 66.7734L22.4109 70.1934L21.1009 70.1834ZM18.0209 66.5134H20.0209C20.2143 66.5134 20.3876 66.4667 20.5409 66.3734C20.6943 66.2734 20.8143 66.1401 20.9009 65.9734C20.9876 65.8001 21.0309 65.6101 21.0309 65.4034C21.0309 65.1701 20.9743 64.9667 20.8609 64.7934C20.7543 64.6134 20.6009 64.4734 20.4009 64.3734C20.2076 64.2734 19.9876 64.2234 19.7409 64.2234H18.0209V66.5134ZM25.8888 70.2834C25.3488 70.2834 24.8688 70.1701 24.4488 69.9434C24.0354 69.7101 23.7088 69.3934 23.4688 68.9934C23.2354 68.5934 23.1188 68.1334 23.1188 67.6134C23.1188 67.2001 23.1854 66.8234 23.3188 66.4834C23.4521 66.1434 23.6354 65.8501 23.8688 65.6034C24.1088 65.3501 24.3921 65.1567 24.7188 65.0234C25.0521 64.8834 25.4121 64.8134 25.7988 64.8134C26.1388 64.8134 26.4554 64.8801 26.7488 65.0134C27.0421 65.1401 27.2954 65.3167 27.5088 65.5434C27.7288 65.7701 27.8954 66.0401 28.0088 66.3534C28.1288 66.6601 28.1854 66.9967 28.1788 67.3634L28.1688 67.8034H23.8788L23.6488 66.9834H27.2788L27.1288 67.1534V66.9134C27.1088 66.6934 27.0354 66.4967 26.9088 66.3234C26.7821 66.1501 26.6221 66.0134 26.4288 65.9134C26.2354 65.8134 26.0254 65.7634 25.7988 65.7634C25.4388 65.7634 25.1354 65.8334 24.8888 65.9734C24.6421 66.1067 24.4554 66.3067 24.3288 66.5734C24.2021 66.8334 24.1388 67.1567 24.1388 67.5434C24.1388 67.9101 24.2154 68.2301 24.3688 68.5034C24.5221 68.7701 24.7388 68.9767 25.0188 69.1234C25.2988 69.2701 25.6221 69.3434 25.9888 69.3434C26.2488 69.3434 26.4888 69.3001 26.7088 69.2134C26.9354 69.1267 27.1788 68.9701 27.4388 68.7434L27.9588 69.4734C27.7988 69.6334 27.6021 69.7734 27.3688 69.8934C27.1421 70.0134 26.8988 70.1101 26.6388 70.1834C26.3854 70.2501 26.1354 70.2834 25.8888 70.2834ZM31.5281 70.2834C31.0415 70.2834 30.6048 70.1634 30.2181 69.9234C29.8381 69.6834 29.5348 69.3567 29.3081 68.9434C29.0881 68.5301 28.9781 68.0667 28.9781 67.5534C28.9781 67.0401 29.0881 66.5767 29.3081 66.1634C29.5348 65.7501 29.8381 65.4234 30.2181 65.1834C30.6048 64.9434 31.0415 64.8234 31.5281 64.8234C31.9948 64.8234 32.4181 64.9201 32.7981 65.1134C33.1848 65.3001 33.4781 65.5567 33.6781 65.8834L33.1081 66.5834C33.0015 66.4301 32.8648 66.2901 32.6981 66.1634C32.5315 66.0367 32.3548 65.9367 32.1681 65.8634C31.9815 65.7901 31.8015 65.7534 31.6281 65.7534C31.3081 65.7534 31.0215 65.8334 30.7681 65.9934C30.5215 66.1467 30.3248 66.3601 30.1781 66.6334C30.0315 66.9067 29.9581 67.2134 29.9581 67.5534C29.9581 67.8934 30.0348 68.2001 30.1881 68.4734C30.3415 68.7401 30.5448 68.9534 30.7981 69.1134C31.0515 69.2734 31.3315 69.3534 31.6381 69.3534C31.8181 69.3534 31.9915 69.3234 32.1581 69.2634C32.3315 69.2034 32.4981 69.1134 32.6581 68.9934C32.8181 68.8734 32.9681 68.7267 33.1081 68.5534L33.6781 69.2534C33.4648 69.5534 33.1581 69.8001 32.7581 69.9934C32.3648 70.1867 31.9548 70.2834 31.5281 70.2834ZM34.8197 70.1834V64.9334H35.8497V70.1834H34.8197ZM35.3197 63.7734C35.0997 63.7734 34.9297 63.7167 34.8097 63.6034C34.6897 63.4901 34.6297 63.3301 34.6297 63.1234C34.6297 62.9301 34.6897 62.7734 34.8097 62.6534C34.9364 62.5334 35.1064 62.4734 35.3197 62.4734C35.5397 62.4734 35.7097 62.5301 35.8297 62.6434C35.9497 62.7567 36.0097 62.9167 36.0097 63.1234C36.0097 63.3167 35.9464 63.4734 35.8197 63.5934C35.6997 63.7134 35.533 63.7734 35.3197 63.7734ZM37.4329 72.3834V64.9334H38.4729V66.1334L38.3129 66.0434C38.3529 65.8434 38.4662 65.6534 38.6529 65.4734C38.8396 65.2867 39.0662 65.1367 39.3329 65.0234C39.6062 64.9034 39.8862 64.8434 40.1729 64.8434C40.6462 64.8434 41.0662 64.9601 41.4329 65.1934C41.7996 65.4267 42.0896 65.7467 42.3029 66.1534C42.5162 66.5601 42.6229 67.0267 42.6229 67.5534C42.6229 68.0734 42.5162 68.5401 42.3029 68.9534C42.0962 69.3601 41.8096 69.6834 41.4429 69.9234C41.0762 70.1567 40.6629 70.2734 40.2029 70.2734C39.8962 70.2734 39.5996 70.2134 39.3129 70.0934C39.0262 69.9667 38.7829 69.8067 38.5829 69.6134C38.3829 69.4201 38.2596 69.2201 38.2129 69.0134L38.4729 68.8734V72.3834H37.4329ZM40.0329 69.3234C40.3396 69.3234 40.6129 69.2467 40.8529 69.0934C41.0929 68.9401 41.2829 68.7301 41.4229 68.4634C41.5629 68.1967 41.6329 67.8934 41.6329 67.5534C41.6329 67.2134 41.5629 66.9134 41.4229 66.6534C41.2896 66.3867 41.1029 66.1767 40.8629 66.0234C40.6229 65.8701 40.3462 65.7934 40.0329 65.7934C39.7196 65.7934 39.4429 65.8701 39.2029 66.0234C38.9629 66.1701 38.7729 66.3767 38.6329 66.6434C38.4929 66.9101 38.4229 67.2134 38.4229 67.5534C38.4229 67.8934 38.4929 68.1967 38.6329 68.4634C38.7729 68.7301 38.9629 68.9401 39.2029 69.0934C39.4429 69.2467 39.7196 69.3234 40.0329 69.3234ZM46.1915 70.2834C45.6515 70.2834 45.1715 70.1701 44.7515 69.9434C44.3382 69.7101 44.0115 69.3934 43.7715 68.9934C43.5382 68.5934 43.4215 68.1334 43.4215 67.6134C43.4215 67.2001 43.4882 66.8234 43.6215 66.4834C43.7548 66.1434 43.9382 65.8501 44.1715 65.6034C44.4115 65.3501 44.6948 65.1567 45.0215 65.0234C45.3548 64.8834 45.7148 64.8134 46.1015 64.8134C46.4415 64.8134 46.7582 64.8801 47.0515 65.0134C47.3448 65.1401 47.5982 65.3167 47.8115 65.5434C48.0315 65.7701 48.1982 66.0401 48.3115 66.3534C48.4315 66.6601 48.4882 66.9967 48.4815 67.3634L48.4715 67.8034H44.1815L43.9515 66.9834H47.5815L47.4315 67.1534V66.9134C47.4115 66.6934 47.3382 66.4967 47.2115 66.3234C47.0848 66.1501 46.9248 66.0134 46.7315 65.9134C46.5382 65.8134 46.3282 65.7634 46.1015 65.7634C45.7415 65.7634 45.4382 65.8334 45.1915 65.9734C44.9448 66.1067 44.7582 66.3067 44.6315 66.5734C44.5048 66.8334 44.4415 67.1567 44.4415 67.5434C44.4415 67.9101 44.5182 68.2301 44.6715 68.5034C44.8248 68.7701 45.0415 68.9767 45.3215 69.1234C45.6015 69.2701 45.9248 69.3434 46.2915 69.3434C46.5515 69.3434 46.7915 69.3001 47.0115 69.2134C47.2382 69.1267 47.4815 68.9701 47.7415 68.7434L48.2615 69.4734C48.1015 69.6334 47.9048 69.7734 47.6715 69.8934C47.4448 70.0134 47.2015 70.1101 46.9415 70.1834C46.6882 70.2501 46.4382 70.2834 46.1915 70.2834ZM51.3509 70.2834C50.9109 70.2834 50.5142 70.2067 50.1609 70.0534C49.8075 69.9001 49.5142 69.6734 49.2809 69.3734L49.9809 68.7734C50.1809 69.0067 50.3975 69.1767 50.6309 69.2834C50.8709 69.3834 51.1409 69.4334 51.4409 69.4334C51.5609 69.4334 51.6709 69.4201 51.7709 69.3934C51.8775 69.3601 51.9675 69.3134 52.0409 69.2534C52.1209 69.1934 52.1809 69.1234 52.2209 69.0434C52.2609 68.9567 52.2809 68.8634 52.2809 68.7634C52.2809 68.5901 52.2175 68.4501 52.0909 68.3434C52.0242 68.2967 51.9175 68.2467 51.7709 68.1934C51.6309 68.1334 51.4475 68.0734 51.2209 68.0134C50.8342 67.9134 50.5175 67.8001 50.2709 67.6734C50.0242 67.5467 49.8342 67.4034 49.7009 67.2434C49.6009 67.1167 49.5275 66.9801 49.4809 66.8334C49.4342 66.6801 49.4109 66.5134 49.4109 66.3334C49.4109 66.1134 49.4575 65.9134 49.5509 65.7334C49.6509 65.5467 49.7842 65.3867 49.9509 65.2534C50.1242 65.1134 50.3242 65.0067 50.5509 64.9334C50.7842 64.8601 51.0309 64.8234 51.2909 64.8234C51.5375 64.8234 51.7809 64.8567 52.0209 64.9234C52.2675 64.9901 52.4942 65.0867 52.7009 65.2134C52.9075 65.3401 53.0809 65.4901 53.2209 65.6634L52.6309 66.3134C52.5042 66.1867 52.3642 66.0767 52.2109 65.9834C52.0642 65.8834 51.9142 65.8067 51.7609 65.7534C51.6075 65.7001 51.4675 65.6734 51.3409 65.6734C51.2009 65.6734 51.0742 65.6867 50.9609 65.7134C50.8475 65.7401 50.7509 65.7801 50.6709 65.8334C50.5975 65.8867 50.5409 65.9534 50.5009 66.0334C50.4609 66.1134 50.4409 66.2034 50.4409 66.3034C50.4475 66.3901 50.4675 66.4734 50.5009 66.5534C50.5409 66.6267 50.5942 66.6901 50.6609 66.7434C50.7342 66.7967 50.8442 66.8534 50.9909 66.9134C51.1375 66.9734 51.3242 67.0301 51.5509 67.0834C51.8842 67.1701 52.1575 67.2667 52.3709 67.3734C52.5909 67.4734 52.7642 67.5901 52.8909 67.7234C53.0242 67.8501 53.1175 67.9967 53.1709 68.1634C53.2242 68.3301 53.2509 68.5167 53.2509 68.7234C53.2509 69.0234 53.1642 69.2934 52.9909 69.5334C52.8242 69.7667 52.5975 69.9501 52.3109 70.0834C52.0242 70.2167 51.7042 70.2834 51.3509 70.2834ZM57.7588 70.1834V64.3434C57.7588 64.0434 57.8254 63.7767 57.9588 63.5434C58.0921 63.3101 58.2754 63.1267 58.5088 62.9934C58.7421 62.8601 59.0121 62.7934 59.3188 62.7934C59.5321 62.7934 59.7321 62.8334 59.9188 62.9134C60.1054 62.9934 60.2554 63.1001 60.3688 63.2334L60.0188 64.0234C59.9321 63.9434 59.8354 63.8801 59.7288 63.8334C59.6288 63.7801 59.5321 63.7534 59.4388 63.7534C59.2988 63.7534 59.1788 63.7767 59.0788 63.8234C58.9854 63.8634 58.9154 63.9301 58.8688 64.0234C58.8221 64.1101 58.7988 64.2167 58.7988 64.3434V70.1834H58.2788C58.1921 70.1834 58.1054 70.1834 58.0188 70.1834C57.9321 70.1834 57.8454 70.1834 57.7588 70.1834ZM56.9188 65.9734V65.0234H60.0388V65.9734H56.9188ZM61.1145 70.1834V64.9334H62.1545V66.5834L62.0545 66.1834C62.1279 65.9301 62.2512 65.7001 62.4245 65.4934C62.6045 65.2867 62.8079 65.1234 63.0345 65.0034C63.2679 64.8834 63.5079 64.8234 63.7545 64.8234C63.8679 64.8234 63.9745 64.8334 64.0745 64.8534C64.1812 64.8734 64.2645 64.8967 64.3245 64.9234L64.0545 66.0434C63.9745 66.0101 63.8845 65.9834 63.7845 65.9634C63.6912 65.9367 63.5979 65.9234 63.5045 65.9234C63.3245 65.9234 63.1512 65.9601 62.9845 66.0334C62.8245 66.1001 62.6812 66.1967 62.5545 66.3234C62.4345 66.4434 62.3379 66.5867 62.2645 66.7534C62.1912 66.9134 62.1545 67.0901 62.1545 67.2834V70.1834H61.1145ZM67.2831 70.2834C66.7698 70.2834 66.3098 70.1667 65.9031 69.9334C65.5031 69.6934 65.1865 69.3701 64.9531 68.9634C64.7198 68.5501 64.6031 68.0801 64.6031 67.5534C64.6031 67.0267 64.7198 66.5601 64.9531 66.1534C65.1865 65.7401 65.5031 65.4167 65.9031 65.1834C66.3098 64.9434 66.7698 64.8234 67.2831 64.8234C67.7898 64.8234 68.2431 64.9434 68.6431 65.1834C69.0498 65.4167 69.3698 65.7401 69.6031 66.1534C69.8365 66.5601 69.9531 67.0267 69.9531 67.5534C69.9531 68.0801 69.8365 68.5501 69.6031 68.9634C69.3698 69.3701 69.0498 69.6934 68.6431 69.9334C68.2431 70.1667 67.7898 70.2834 67.2831 70.2834ZM67.2831 69.3434C67.5965 69.3434 67.8765 69.2667 68.1231 69.1134C68.3698 68.9534 68.5631 68.7401 68.7031 68.4734C68.8431 68.2001 68.9098 67.8934 68.9031 67.5534C68.9098 67.2067 68.8431 66.9001 68.7031 66.6334C68.5631 66.3601 68.3698 66.1467 68.1231 65.9934C67.8765 65.8401 67.5965 65.7634 67.2831 65.7634C66.9698 65.7634 66.6865 65.8434 66.4331 66.0034C66.1865 66.1567 65.9931 66.3701 65.8531 66.6434C65.7131 66.9101 65.6465 67.2134 65.6531 67.5534C65.6465 67.8934 65.7131 68.2001 65.8531 68.4734C65.9931 68.7401 66.1865 68.9534 66.4331 69.1134C66.6865 69.2667 66.9698 69.3434 67.2831 69.3434ZM71.0555 70.1834V64.9334H72.0955V66.0534L71.9055 66.1734C71.9588 66.0001 72.0421 65.8334 72.1555 65.6734C72.2755 65.5134 72.4188 65.3734 72.5855 65.2534C72.7588 65.1267 72.9421 65.0267 73.1355 64.9534C73.3355 64.8801 73.5388 64.8434 73.7455 64.8434C74.0455 64.8434 74.3088 64.8934 74.5355 64.9934C74.7621 65.0934 74.9488 65.2434 75.0955 65.4434C75.2421 65.6434 75.3488 65.8934 75.4155 66.1934L75.2555 66.1534L75.3255 65.9834C75.3988 65.8301 75.4988 65.6867 75.6255 65.5534C75.7588 65.4134 75.9088 65.2901 76.0755 65.1834C76.2421 65.0767 76.4188 64.9934 76.6055 64.9334C76.7921 64.8734 76.9755 64.8434 77.1555 64.8434C77.5488 64.8434 77.8721 64.9234 78.1255 65.0834C78.3855 65.2434 78.5788 65.4867 78.7055 65.8134C78.8388 66.1401 78.9055 66.5467 78.9055 67.0334V70.1834H77.8655V67.0934C77.8655 66.7934 77.8255 66.5501 77.7455 66.3634C77.6721 66.1701 77.5588 66.0267 77.4055 65.9334C77.2521 65.8401 77.0555 65.7934 76.8155 65.7934C76.6288 65.7934 76.4521 65.8267 76.2855 65.8934C76.1255 65.9534 75.9855 66.0401 75.8655 66.1534C75.7455 66.2667 75.6521 66.4001 75.5855 66.5534C75.5188 66.7001 75.4855 66.8634 75.4855 67.0434V70.1834H74.4455V67.0734C74.4455 66.8001 74.4055 66.5701 74.3255 66.3834C74.2455 66.1901 74.1288 66.0434 73.9755 65.9434C73.8221 65.8434 73.6355 65.7934 73.4155 65.7934C73.2288 65.7934 73.0555 65.8267 72.8955 65.8934C72.7355 65.9534 72.5955 66.0401 72.4755 66.1534C72.3555 66.2601 72.2621 66.3901 72.1955 66.5434C72.1288 66.6901 72.0955 66.8501 72.0955 67.0234V70.1834H71.0555ZM85.1072 70.2834C84.6739 70.2834 84.2772 70.1634 83.9172 69.9234C83.5639 69.6834 83.2805 69.3567 83.0672 68.9434C82.8539 68.5301 82.7472 68.0634 82.7472 67.5434C82.7472 67.0167 82.8539 66.5501 83.0672 66.1434C83.2872 65.7301 83.5805 65.4067 83.9472 65.1734C84.3205 64.9401 84.7372 64.8234 85.1972 64.8234C85.4705 64.8234 85.7205 64.8634 85.9472 64.9434C86.1739 65.0234 86.3705 65.1367 86.5372 65.2834C86.7105 65.4234 86.8505 65.5867 86.9572 65.7734C87.0705 65.9601 87.1405 66.1601 87.1672 66.3734L86.9372 66.2934V64.9334H87.9772V70.1834H86.9372V68.9334L87.1772 68.8634C87.1372 69.0434 87.0539 69.2201 86.9272 69.3934C86.8072 69.5601 86.6505 69.7101 86.4572 69.8434C86.2705 69.9767 86.0605 70.0834 85.8272 70.1634C85.6005 70.2434 85.3605 70.2834 85.1072 70.2834ZM85.3772 69.3334C85.6905 69.3334 85.9672 69.2567 86.2072 69.1034C86.4472 68.9501 86.6339 68.7401 86.7672 68.4734C86.9072 68.2001 86.9772 67.8901 86.9772 67.5434C86.9772 67.2034 86.9072 66.9001 86.7672 66.6334C86.6339 66.3667 86.4472 66.1567 86.2072 66.0034C85.9672 65.8501 85.6905 65.7734 85.3772 65.7734C85.0705 65.7734 84.7972 65.8501 84.5572 66.0034C84.3239 66.1567 84.1372 66.3667 83.9972 66.6334C83.8639 66.9001 83.7972 67.2034 83.7972 67.5434C83.7972 67.8901 83.8639 68.2001 83.9972 68.4734C84.1372 68.7401 84.3239 68.9501 84.5572 69.1034C84.7972 69.2567 85.0705 69.3334 85.3772 69.3334ZM89.4353 70.1834V62.7834H90.4653V70.1834H89.4353ZM91.9451 70.1834V62.7834H92.9751V70.1834H91.9451ZM99.5976 70.2834C99.0842 70.2834 98.6242 70.1667 98.2176 69.9334C97.8176 69.6934 97.5009 69.3701 97.2676 68.9634C97.0342 68.5501 96.9176 68.0801 96.9176 67.5534C96.9176 67.0267 97.0342 66.5601 97.2676 66.1534C97.5009 65.7401 97.8176 65.4167 98.2176 65.1834C98.6242 64.9434 99.0842 64.8234 99.5976 64.8234C100.104 64.8234 100.558 64.9434 100.958 65.1834C101.364 65.4167 101.684 65.7401 101.918 66.1534C102.151 66.5601 102.268 67.0267 102.268 67.5534C102.268 68.0801 102.151 68.5501 101.918 68.9634C101.684 69.3701 101.364 69.6934 100.958 69.9334C100.558 70.1667 100.104 70.2834 99.5976 70.2834ZM99.5976 69.3434C99.9109 69.3434 100.191 69.2667 100.438 69.1134C100.684 68.9534 100.878 68.7401 101.018 68.4734C101.158 68.2001 101.224 67.8934 101.218 67.5534C101.224 67.2067 101.158 66.9001 101.018 66.6334C100.878 66.3601 100.684 66.1467 100.438 65.9934C100.191 65.8401 99.9109 65.7634 99.5976 65.7634C99.2842 65.7634 99.0009 65.8434 98.7476 66.0034C98.5009 66.1567 98.3076 66.3701 98.1676 66.6434C98.0276 66.9101 97.9609 67.2134 97.9676 67.5534C97.9609 67.8934 98.0276 68.2001 98.1676 68.4734C98.3076 68.7401 98.5009 68.9534 98.7476 69.1134C99.0009 69.2667 99.2842 69.3434 99.5976 69.3434ZM104.963 70.1834L102.743 64.9334H103.853L105.453 68.8634L105.263 68.9534L106.973 64.9334H108.033L105.703 70.1834H104.963ZM111.279 70.2834C110.739 70.2834 110.259 70.1701 109.839 69.9434C109.426 69.7101 109.099 69.3934 108.859 68.9934C108.626 68.5934 108.509 68.1334 108.509 67.6134C108.509 67.2001 108.576 66.8234 108.709 66.4834C108.843 66.1434 109.026 65.8501 109.259 65.6034C109.499 65.3501 109.783 65.1567 110.109 65.0234C110.443 64.8834 110.803 64.8134 111.189 64.8134C111.529 64.8134 111.846 64.8801 112.139 65.0134C112.433 65.1401 112.686 65.3167 112.899 65.5434C113.119 65.7701 113.286 66.0401 113.399 66.3534C113.519 66.6601 113.576 66.9967 113.569 67.3634L113.559 67.8034H109.269L109.039 66.9834H112.669L112.519 67.1534V66.9134C112.499 66.6934 112.426 66.4967 112.299 66.3234C112.173 66.1501 112.013 66.0134 111.819 65.9134C111.626 65.8134 111.416 65.7634 111.189 65.7634C110.829 65.7634 110.526 65.8334 110.279 65.9734C110.033 66.1067 109.846 66.3067 109.719 66.5734C109.593 66.8334 109.529 67.1567 109.529 67.5434C109.529 67.9101 109.606 68.2301 109.759 68.5034C109.913 68.7701 110.129 68.9767 110.409 69.1234C110.689 69.2701 111.013 69.3434 111.379 69.3434C111.639 69.3434 111.879 69.3001 112.099 69.2134C112.326 69.1267 112.569 68.9701 112.829 68.7434L113.349 69.4734C113.189 69.6334 112.993 69.7734 112.759 69.8934C112.533 70.0134 112.289 70.1101 112.029 70.1834C111.776 70.2501 111.526 70.2834 111.279 70.2834ZM114.689 70.1834V64.9334H115.729V66.5834L115.629 66.1834C115.702 65.9301 115.825 65.7001 115.999 65.4934C116.179 65.2867 116.382 65.1234 116.609 65.0034C116.842 64.8834 117.082 64.8234 117.329 64.8234C117.442 64.8234 117.549 64.8334 117.649 64.8534C117.755 64.8734 117.839 64.8967 117.899 64.9234L117.629 66.0434C117.549 66.0101 117.459 65.9834 117.359 65.9634C117.265 65.9367 117.172 65.9234 117.079 65.9234C116.899 65.9234 116.725 65.9601 116.559 66.0334C116.399 66.1001 116.255 66.1967 116.129 66.3234C116.009 66.4434 115.912 66.5867 115.839 66.7534C115.765 66.9134 115.729 67.0901 115.729 67.2834V70.1834H114.689ZM122.175 70.1834V63.5934H123.205V70.1834H122.175ZM121.085 65.9334V64.9334H124.425V65.9334H121.085ZM125.363 70.1834V62.7834H126.393V66.0134L126.213 66.1334C126.279 65.9001 126.409 65.6867 126.603 65.4934C126.796 65.2934 127.026 65.1334 127.293 65.0134C127.559 64.8867 127.833 64.8234 128.113 64.8234C128.513 64.8234 128.846 64.9034 129.113 65.0634C129.379 65.2167 129.579 65.4534 129.713 65.7734C129.846 66.0934 129.913 66.4967 129.913 66.9834V70.1834H128.883V67.0534C128.883 66.7534 128.843 66.5067 128.763 66.3134C128.683 66.1134 128.559 65.9701 128.393 65.8834C128.226 65.7901 128.019 65.7501 127.773 65.7634C127.573 65.7634 127.389 65.7967 127.223 65.8634C127.056 65.9234 126.909 66.0101 126.783 66.1234C126.663 66.2367 126.566 66.3701 126.493 66.5234C126.426 66.6701 126.393 66.8301 126.393 67.0034V70.1834H125.883C125.796 70.1834 125.709 70.1834 125.623 70.1834C125.536 70.1834 125.449 70.1834 125.363 70.1834ZM133.76 70.2834C133.22 70.2834 132.74 70.1701 132.32 69.9434C131.907 69.7101 131.58 69.3934 131.34 68.9934C131.107 68.5934 130.99 68.1334 130.99 67.6134C130.99 67.2001 131.057 66.8234 131.19 66.4834C131.323 66.1434 131.507 65.8501 131.74 65.6034C131.98 65.3501 132.263 65.1567 132.59 65.0234C132.923 64.8834 133.283 64.8134 133.67 64.8134C134.01 64.8134 134.327 64.8801 134.62 65.0134C134.913 65.1401 135.167 65.3167 135.38 65.5434C135.6 65.7701 135.767 66.0401 135.88 66.3534C136 66.6601 136.057 66.9967 136.05 67.3634L136.04 67.8034H131.75L131.52 66.9834H135.15L135 67.1534V66.9134C134.98 66.6934 134.907 66.4967 134.78 66.3234C134.653 66.1501 134.493 66.0134 134.3 65.9134C134.107 65.8134 133.897 65.7634 133.67 65.7634C133.31 65.7634 133.007 65.8334 132.76 65.9734C132.513 66.1067 132.327 66.3067 132.2 66.5734C132.073 66.8334 132.01 67.1567 132.01 67.5434C132.01 67.9101 132.087 68.2301 132.24 68.5034C132.393 68.7701 132.61 68.9767 132.89 69.1234C133.17 69.2701 133.493 69.3434 133.86 69.3434C134.12 69.3434 134.36 69.3001 134.58 69.2134C134.807 69.1267 135.05 68.9701 135.31 68.7434L135.83 69.4734C135.67 69.6334 135.473 69.7734 135.24 69.8934C135.013 70.0134 134.77 70.1101 134.51 70.1834C134.257 70.2501 134.007 70.2834 133.76 70.2834ZM141.262 70.1834L139.472 64.9334L140.512 64.9234L141.792 68.8534L141.562 68.8334L142.952 65.7634H143.572L144.972 68.8434L144.702 68.8634L145.992 64.9334H147.032L145.262 70.1834H144.552L143.092 66.8434L143.322 66.8734L141.962 70.1834H141.262ZM150.184 70.2834C149.67 70.2834 149.21 70.1667 148.804 69.9334C148.404 69.6934 148.087 69.3701 147.854 68.9634C147.62 68.5501 147.504 68.0801 147.504 67.5534C147.504 67.0267 147.62 66.5601 147.854 66.1534C148.087 65.7401 148.404 65.4167 148.804 65.1834C149.21 64.9434 149.67 64.8234 150.184 64.8234C150.69 64.8234 151.144 64.9434 151.544 65.1834C151.95 65.4167 152.27 65.7401 152.504 66.1534C152.737 66.5601 152.854 67.0267 152.854 67.5534C152.854 68.0801 152.737 68.5501 152.504 68.9634C152.27 69.3701 151.95 69.6934 151.544 69.9334C151.144 70.1667 150.69 70.2834 150.184 70.2834ZM150.184 69.3434C150.497 69.3434 150.777 69.2667 151.024 69.1134C151.27 68.9534 151.464 68.7401 151.604 68.4734C151.744 68.2001 151.81 67.8934 151.804 67.5534C151.81 67.2067 151.744 66.9001 151.604 66.6334C151.464 66.3601 151.27 66.1467 151.024 65.9934C150.777 65.8401 150.497 65.7634 150.184 65.7634C149.87 65.7634 149.587 65.8434 149.334 66.0034C149.087 66.1567 148.894 66.3701 148.754 66.6434C148.614 66.9101 148.547 67.2134 148.554 67.5534C148.547 67.8934 148.614 68.2001 148.754 68.4734C148.894 68.7401 149.087 68.9534 149.334 69.1134C149.587 69.2667 149.87 69.3434 150.184 69.3434ZM153.976 70.1834V64.9334H155.016V66.5834L154.916 66.1834C154.989 65.9301 155.113 65.7001 155.286 65.4934C155.466 65.2867 155.669 65.1234 155.896 65.0034C156.129 64.8834 156.369 64.8234 156.616 64.8234C156.729 64.8234 156.836 64.8334 156.936 64.8534C157.043 64.8734 157.126 64.8967 157.186 64.9234L156.916 66.0434C156.836 66.0101 156.746 65.9834 156.646 65.9634C156.553 65.9367 156.459 65.9234 156.366 65.9234C156.186 65.9234 156.013 65.9601 155.846 66.0334C155.686 66.1001 155.543 66.1967 155.416 66.3234C155.296 66.4434 155.199 66.5867 155.126 66.7534C155.053 66.9134 155.016 67.0901 155.016 67.2834V70.1834H153.976ZM158.029 70.1834V62.7834H159.059V70.1834H158.029ZM162.611 70.2834C162.131 70.2834 161.701 70.1667 161.321 69.9334C160.948 69.6934 160.651 69.3701 160.431 68.9634C160.211 68.5501 160.101 68.0801 160.101 67.5534C160.101 67.0267 160.208 66.5601 160.421 66.1534C160.641 65.7401 160.938 65.4167 161.311 65.1834C161.685 64.9434 162.108 64.8234 162.581 64.8234C162.841 64.8234 163.091 64.8667 163.331 64.9534C163.578 65.0334 163.798 65.1467 163.991 65.2934C164.185 65.4334 164.335 65.5901 164.441 65.7634C164.555 65.9301 164.611 66.1001 164.611 66.2734L164.311 66.2934V62.7834H165.341V70.1834H164.311V68.9334H164.511C164.511 69.0934 164.458 69.2534 164.351 69.4134C164.245 69.5667 164.101 69.7101 163.921 69.8434C163.748 69.9767 163.545 70.0834 163.311 70.1634C163.085 70.2434 162.851 70.2834 162.611 70.2834ZM162.751 69.3934C163.065 69.3934 163.341 69.3134 163.581 69.1534C163.821 68.9934 164.008 68.7767 164.141 68.5034C164.281 68.2234 164.351 67.9067 164.351 67.5534C164.351 67.2001 164.281 66.8867 164.141 66.6134C164.008 66.3334 163.821 66.1134 163.581 65.9534C163.341 65.7934 163.065 65.7134 162.751 65.7134C162.438 65.7134 162.161 65.7934 161.921 65.9534C161.681 66.1134 161.491 66.3334 161.351 66.6134C161.218 66.8867 161.151 67.2001 161.151 67.5534C161.151 67.9067 161.218 68.2234 161.351 68.5034C161.491 68.7767 161.681 68.9934 161.921 69.1534C162.161 69.3134 162.438 69.3934 162.751 69.3934Z" fill="black"/>
</svg>
